FFmpeg version SVN-r25716, Copyright (c) 2000-2010 the FFmpeg developers  built on Nov 10 2010 12:23:18 with gcc 4.1.2 20080704 (Red Hat 4.1.2-48)  configuration: --enable-libmp3lame --enable-shared --disable-mmx --arch=x86_64  libavutil     50.33. 0 / 50.33. 0  libavcore      0.12. 1 /  0.12. 1  libavcodec    52.94. 4 / 52.94. 4  libavformat   52.84. 0 / 52.84. 0  libavdevice   52. 2. 2 / 52. 2. 2  libavfilter    1.59. 0 /  1.59. 0  libswscale     0.12. 0 /  0.12. 0[mov,mp4,m4a,3gp,3g2,mj2 @ 0x159b64c0] multiple edit list entries, a/v desync might occur, patch welcomeInput #0, mov,mp4,m4a,3gp,3g2,mj2, from '/RAID10/data/converted_video_files/11926.mov':  Duration: 00:00:08.95, start: 0.208333, bitrate: 6953 kb/s    Stream #0.0(eng): Video: cinepak, pal8, 306x448, 6942 kb/s, 23.78 fps, 24 tbr, 24 tbn, 24 tbc[buffer @ 0x159bf230] w:306 h:448 pixfmt:pal8[ffsink @ 0x159bf4a0] auto-inserting filter 'auto-inserted scaler 0' between the filter 'src' and the filter 'out'[scale @ 0x159ddd80] w:306 h:448 fmt:pal8 -> w:306 h:448 fmt:yuv420p flags:0x4Output #0, flv, to '/RAID10/data/converted_video_files/11926.flv':  Metadata:    encoder         : Lavf52.84.0    Stream #0.0(eng): Video: flv, yuv420p, 306x448, q=2-31, 600 kb/s, 1k tbn, 24 tbcStream mapping:  Stream #0.0 -> #0.0Press [q] to stop encodingframe=   30 fps=  0 q=31.0 size=     419kB time=1.33 bitrate=2571.8kbits/s    frame=   74 fps= 71 q=29.9 size=     499kB time=3.17 bitrate=1290.0kbits/s    frame=  110 fps= 71 q=26.4 size=     578kB time=4.67 bitrate=1014.1kbits/s    frame=  149 fps= 72 q=22.5 size=     677kB time=6.29 bitrate= 881.8kbits/s    frame=  200 fps= 78 q=23.3 size=     808kB time=8.42 bitrate= 786.8kbits/s    frame=  213 fps= 79 q=22.3 Lsize=     844kB time=8.96 bitrate= 772.1kbits/s    video:841kB audio:0kB global headers:0kB muxing overhead 0.420211%